<svg width="40" height="40" viewBox="0 0 40 40" fill="none" xmlns="http://www.w3.org/2000/svg">
<g clip-path="url(#clip0)">
<path d="M21.3035 28.5845C17.212 26.1449 13.7986 22.7315 11.3587 18.6397L16.5247 13.4737L6.58028 3.52893L2.4128 7.69611C-0.00938487 10.1183 -0.683823 13.8066 0.735244 16.8743C2.63344 20.9783 5.08308 24.7551 8.01582 28.0996C12.2221 32.896 17.324 36.6701 23.18 39.3166C26.1805 40.6725 29.8078 39.9697 32.2059 37.5716L36.4143 33.3632L26.4695 23.4185L21.3035 28.5845ZM30.5485 35.9142C28.8346 37.6281 26.2614 38.1368 24.1453 37.1804C12.1961 31.7803 5.97603 22.6223 2.86262 15.8904C1.85463 13.7108 2.33986 11.0839 4.07021 9.35352L6.58028 6.84375L13.2099 13.4737L8.44124 18.2427L8.87062 19.0154C11.6877 24.0862 15.857 28.2558 20.9281 31.0729L21.7008 31.5023L26.4695 26.7336L33.0994 33.3632L30.5485 35.9142Z" fill="#F3F2F0"/>
<path fill-rule="evenodd" clip-rule="evenodd" d="M26.8029 14.092C25.4598 12.7862 23.7009 12 22 12V10C24.2991 10 26.5402 11.0472 28.1971 12.658C29.8579 14.2726 31 16.5206 31 19H29C29 17.1461 28.1421 15.394 26.8029 14.092Z" fill="#F3F2F0"/>
<path fill-rule="evenodd" clip-rule="evenodd" d="M29.5529 11.2795C27.4598 9.24451 24.7009 8 22 8V6C25.2991 6 28.5402 7.50549 30.9471 9.8455C33.3579 12.1893 35 15.4372 35 19H33C33 16.0628 31.6421 13.3107 29.5529 11.2795Z" fill="#F3F2F0"/>
</g>
<defs>
<clipPath id="clip0">
<rect width="40" height="40" fill="white"/>
</clipPath>
</defs>
</svg>
